# xmcd CD database file
#
# Track frame offsets:
#	150
#	20543
#	35739
#	52312
#	65550
#	83857
#	105617
#	119649
#	159440
#	175025
#	199692
#
# Disc length: 3001 seconds
#
# Revision: 2
# Processed by: cddbd v1.5.2PL0 Copyright (c) Steve Scherf et al.
# Submitted via: CDex 1.51
#
DISCID=990bb70b
DTITLE=Tracy Nelson - Live From Cell Block D
DYEAR=2003
DGENRE=Jazz
TTITLE0=I Need All The Help I Can Get
TTITLE1=Walkin' After Midnight
TTITLE2=God Will
TTITLE3=Got A New Truck
TTITLE4=Tennessee Blues
TTITLE5=Send Me To The 'Lectric Chair
TTITLE6=After The Fire Is Gone
TTITLE7=Mother Earth
TTITLE8=Strongest Weakness
TTITLE9=Down So Low
TTITLE10=Feel So Good
EXTD=YEAR: 2003
EXTT0=
EXTT1=
EXTT2=
EXTT3=
EXTT4=
EXTT5=
EXTT6=
EXTT7=
EXTT8=
EXTT9=
EXTT10=
PLAYORDER=
